<svg width="28" height="28" viewBox="0 0 28 28" fill="none" xmlns="http://www.w3.org/2000/svg">
<path d="M20.5333 6.53311H22.4M8.40002 0.933105H19.6C23.7237 0.933105 27.0667 4.27605 27.0667 8.39977V19.5998C27.0667 23.7235 23.7237 27.0664 19.6 27.0664H8.40002C4.27629 27.0664 0.93335 23.7235 0.93335 19.5998V8.39977C0.93335 4.27605 4.27629 0.933105 8.40002 0.933105ZM14 19.5998C10.9072 19.5998 8.40002 17.0926 8.40002 13.9998C8.40002 10.907 10.9072 8.39977 14 8.39977C17.0928 8.39977 19.6 10.907 19.6 13.9998C19.6 17.0926 17.0928 19.5998 14 19.5998Z" stroke="white" stroke-width="1.5"/>
</svg>
