<svg width="30" height="30" viewBox="0 0 30 30" fill="none" xmlns="http://www.w3.org/2000/svg">
<path d="M25.2919 9.08197C26.34 8.2239 26.8405 7.29156 27.5993 6.20177C27.5998 6.20103 27.5992 6.20004 27.5983 6.2002C26.3334 6.42856 25.2628 6.42856 23.9782 6.42856C22.9957 5.42493 21.5981 4.7998 20.048 4.7998C17.0741 4.7998 14.6628 7.10864 14.6628 9.95462C14.6628 10.3583 14.7104 10.7525 14.8022 11.1295C10.3777 10.9167 6.44877 8.90735 3.79388 5.84687C3.74927 5.79545 3.66741 5.80194 3.63355 5.86098C3.21308 6.59405 2.97558 7.43701 2.97558 8.33371C2.97558 10.11 3.91356 11.6788 5.3399 12.605C5.34842 12.6105 5.34504 12.6239 5.33488 12.6236C4.49454 12.5988 2.77699 12.6213 1.87909 12.6243C1.80216 12.6246 1.75431 12.7079 1.79375 12.774C3.05697 14.8895 4.9375 16.4138 7.21525 17.0876C7.225 17.0904 7.22537 17.1043 7.21553 17.1068C6.117 17.3918 4.27287 17.9581 3.10027 18.2351C3.02519 18.2529 2.99752 18.3446 3.05275 18.3985C4.41915 19.7315 7.53531 20.7158 9.81807 20.7632C9.82759 20.7634 9.83121 20.7755 9.82358 20.7812C7.98519 22.1522 5.66737 22.8969 3.15933 22.9673C2.83646 22.9182 2.54607 22.9252 2.25764 22.9188C2.15465 22.9165 2.10593 23.0547 2.1929 23.1099C4.07776 24.3063 7.25638 25.2165 10.1291 25.2165C20.0349 25.2165 25.8349 17.3493 25.4496 10.5468C25.3825 9.36123 25.3538 9.4743 25.2919 9.08197Z" stroke="white" stroke-width="1.5"/>
</svg>
