<svg width="28" height="28" viewBox="0 0 28 28" fill="none" xmlns="http://www.w3.org/2000/svg">
<path d="M11.0608 7.61532L11.0612 7.61632C11.2461 8.02986 11.552 8.77764 11.7956 9.37337L11.8006 9.38557C11.8969 9.62103 11.9837 9.83323 12.0514 9.99648C12.0852 10.0782 12.1135 10.1456 12.1352 10.1965C12.1532 10.2386 12.1628 10.2598 12.166 10.267C12.1672 10.2697 12.1675 10.2704 12.167 10.2694L11.4962 10.6048M11.0608 7.61532L12.1986 11.5649C12.4598 11.0275 12.3108 10.5568 12.1669 10.2692L11.4962 10.6048M11.0608 7.61532C10.889 7.23257 10.6637 6.92466 10.3416 6.73725C10.0341 6.55828 9.73219 6.55083 9.59812 6.54752C9.59359 6.54741 9.58926 6.5473 9.58512 6.54719M11.0608 7.61532L9.58512 6.54719M11.4962 10.6048C11.5866 10.7855 11.6423 10.994 11.524 11.2372L10.3765 7.92238C10.5564 8.32486 10.8595 9.06579 11.1064 9.66938L11.1064 9.6695L11.1065 9.66978C11.2986 10.1394 11.4567 10.5257 11.4962 10.6048ZM21.9551 17.0545C21.8266 16.8372 21.6431 16.7079 21.521 16.633C21.4045 16.5615 21.2683 16.496 21.1573 16.4426L21.1395 16.4341C21.0771 16.404 21.015 16.3741 20.9492 16.3412L20.9491 16.3412C20.7649 16.2492 20.2264 15.9836 19.6919 15.7253C19.1789 15.4774 18.6092 15.2064 18.4012 15.1284L18.4011 15.1284L18.3931 15.1254C18.2399 15.068 17.9378 14.9547 17.6066 14.9939C17.1908 15.0431 16.8984 15.2949 16.7002 15.5955C16.5094 15.8774 15.9728 16.5132 15.6982 16.8349C15.626 16.8001 15.5416 16.7635 15.4642 16.73L15.4511 16.7243L15.4493 16.7236C14.9656 16.514 14.0452 16.1154 12.9767 15.1603L12.9754 15.1592C12.0909 14.3723 11.4514 13.4036 11.1871 12.9669C11.3043 12.8449 11.4269 12.6961 11.5261 12.5758L11.5392 12.5598C11.6086 12.4757 11.6707 12.4004 11.7289 12.3334L11.729 12.3332C11.9547 12.073 12.0584 11.8568 12.1547 11.656L12.1604 11.6442L12.1604 11.6442L12.1985 11.5651L18.6526 20.8829L18.7226 21.6297C19.2302 21.5821 19.8855 21.2908 20.4196 20.9455C20.9442 20.6063 21.5667 20.0778 21.8062 19.4141L21.808 19.409C21.9789 18.9244 22.067 18.4693 22.0984 18.1009C22.114 17.9175 22.1166 17.7443 22.1047 17.592C22.0958 17.4796 22.0724 17.253 21.9551 17.0545ZM21.9551 17.0545L21.3094 17.4361L21.9549 17.0543C21.955 17.0544 21.955 17.0544 21.9551 17.0545ZM9.58512 6.54719C9.36461 6.53994 9.11203 6.53995 8.87519 6.53995H8.86731C8.45129 6.53995 7.8485 6.69272 7.3497 7.23268C7.33284 7.25094 7.31355 7.27141 7.28908 7.29737L7.28908 7.29738C6.87291 7.73893 5.88477 8.79323 5.88477 10.7647C5.88477 11.8099 6.25744 12.7962 6.62424 13.524C6.99607 14.2616 7.39499 14.7975 7.50673 14.9476L7.50679 14.9477L7.50686 14.9478L7.51251 14.9554M9.58512 6.54719L7.51251 14.9554M7.51251 14.9554C7.5128 14.9558 7.51318 14.9563 7.51366 14.957L7.52511 14.9736L7.56811 15.0372L7.57658 15.0498C8.0467 15.7476 10.4033 19.2451 14.0305 20.6771C15.4373 21.233 16.378 21.5034 17.0676 21.6195C17.785 21.7403 18.2127 21.6902 18.5522 21.649L7.51251 14.9554ZM7.66078 25.6237C7.49308 25.5325 7.29691 25.5087 7.11226 25.5571L0.949074 27.1732L2.59409 21.1786C2.64712 20.9854 2.62061 20.7789 2.52047 20.6054C1.35974 18.5934 0.749171 16.3117 0.750001 13.9894V13.9892C0.750001 6.69028 6.70061 0.75 13.9999 0.75C17.5494 0.75 20.8711 2.13016 23.3734 4.6306C25.875 7.13035 27.25 10.4558 27.25 13.9961C27.25 21.2948 21.2994 27.2351 14 27.2351H13.9931C11.7751 27.2351 9.59612 26.6761 7.66078 25.6237Z" stroke="white" stroke-width="1.5" stroke-linejoin="round"/>
</svg>
